<svg width="28" height="24" viewBox="0 0 28 24" fill="none" xmlns="http://www.w3.org/2000/svg">
<path d="M2.00002 0H26C26.3536 0 26.6928 0.140476 26.9428 0.390524C27.1929 0.640573 27.3334 0.979711 27.3334 1.33333V22.6667C27.3334 23.0203 27.1929 23.3594 26.9428 23.6095C26.6928 23.8595 26.3536 24 26 24H2.00002C1.6464 24 1.30726 23.8595 1.05721 23.6095C0.807163 23.3594 0.666687 23.0203 0.666687 22.6667V1.33333C0.666687 0.979711 0.807163 0.640573 1.05721 0.390524C1.30726 0.140476 1.6464 0 2.00002 0ZM14.08 11.5773L5.53069 4.31733L3.80402 6.34933L14.0974 15.0893L24.2054 6.34267L22.4614 4.32533L14.0814 11.5773H14.08Z" fill="#8A94A7"/>
</svg>
