<svg width="28" height="28" viewBox="0 0 28 28" fill="none" xmlns="http://www.w3.org/2000/svg">
<path d="M14 0.666687C6.63599 0.666687 0.666656 6.63602 0.666656 14C0.666656 20.6547 5.54266 26.1707 11.9173 27.172V17.8534H8.53066V14H11.9173V11.0627C11.9173 7.72135 13.9067 5.87602 16.9533 5.87602C18.412 5.87602 19.9373 6.13602 19.9373 6.13602V9.41602H18.2573C16.6 9.41602 16.084 10.444 16.084 11.4987V14H19.7813L19.1907 17.8534H16.084V27.172C22.4573 26.172 27.3333 20.6534 27.3333 14C27.3333 6.63602 21.364 0.666687 14 0.666687Z" fill="url(#paint0_linear_44_34)"/>
<defs>
<linearGradient id="paint0_linear_44_34" x1="-2.66668" y1="-2.64648" x2="30.862" y2="31.0862" gradientUnits="userSpaceOnUse">
<stop stop-color="#00BFFB"/>
<stop offset="1" stop-color="#0270D7"/>
</linearGradient>
</defs>
</svg>
