<svg width="28" height="28" viewBox="0 0 28 28" fill="none" xmlns="http://www.w3.org/2000/svg">
<path d="M14 0.666687C17.6227 0.666687 18.0747 0.68002 19.496 0.746687C20.916 0.813354 21.8827 1.03602 22.7334 1.36669C23.6134 1.70535 24.3547 2.16402 25.096 2.90402C25.774 3.57055 26.2986 4.37681 26.6334 5.26669C26.9627 6.11602 27.1867 7.08402 27.2534 8.50402C27.316 9.92535 27.3334 10.3774 27.3334 14C27.3334 17.6227 27.32 18.0747 27.2534 19.496C27.1867 20.916 26.9627 21.8827 26.6334 22.7334C26.2996 23.6237 25.7748 24.4302 25.096 25.096C24.4293 25.7738 23.6231 26.2984 22.7334 26.6334C21.884 26.9627 20.916 27.1867 19.496 27.2534C18.0747 27.316 17.6227 27.3334 14 27.3334C10.3774 27.3334 9.92535 27.32 8.50402 27.2534C7.08402 27.1867 6.11735 26.9627 5.26669 26.6334C4.37645 26.2993 3.57006 25.7746 2.90402 25.096C2.2259 24.4296 1.70126 23.6233 1.36669 22.7334C1.03602 21.884 0.813354 20.916 0.746687 19.496C0.68402 18.0747 0.666687 17.6227 0.666687 14C0.666687 10.3774 0.68002 9.92535 0.746687 8.50402C0.813354 7.08269 1.03602 6.11735 1.36669 5.26669C1.70034 4.37626 2.22509 3.56978 2.90402 2.90402C3.57025 2.22566 4.37659 1.70099 5.26669 1.36669C6.11735 1.03602 7.08269 0.813354 8.50402 0.746687C9.92535 0.68402 10.3774 0.666687 14 0.666687ZM14 7.33335C12.2319 7.33335 10.5362 8.03573 9.28597 9.28597C8.03573 10.5362 7.33335 12.2319 7.33335 14C7.33335 15.7681 8.03573 17.4638 9.28597 18.7141C10.5362 19.9643 12.2319 20.6667 14 20.6667C15.7681 20.6667 17.4638 19.9643 18.7141 18.7141C19.9643 17.4638 20.6667 15.7681 20.6667 14C20.6667 12.2319 19.9643 10.5362 18.7141 9.28597C17.4638 8.03573 15.7681 7.33335 14 7.33335ZM22.6667 7.00002C22.6667 6.55799 22.4911 6.13407 22.1785 5.82151C21.866 5.50895 21.442 5.33335 21 5.33335C20.558 5.33335 20.1341 5.50895 19.8215 5.82151C19.5089 6.13407 19.3334 6.55799 19.3334 7.00002C19.3334 7.44205 19.5089 7.86597 19.8215 8.17853C20.1341 8.49109 20.558 8.66669 21 8.66669C21.442 8.66669 21.866 8.49109 22.1785 8.17853C22.4911 7.86597 22.6667 7.44205 22.6667 7.00002ZM14 10C15.0609 10 16.0783 10.4214 16.8284 11.1716C17.5786 11.9217 18 12.9392 18 14C18 15.0609 17.5786 16.0783 16.8284 16.8284C16.0783 17.5786 15.0609 18 14 18C12.9392 18 11.9217 17.5786 11.1716 16.8284C10.4214 16.0783 10 15.0609 10 14C10 12.9392 10.4214 11.9217 11.1716 11.1716C11.9217 10.4214 12.9392 10 14 10Z" fill="url(#paint0_linear_44_42)"/>
<defs>
<linearGradient id="paint0_linear_44_42" x1="-2.66665" y1="-2.66665" x2="31.0667" y2="31.0667" gradientUnits="userSpaceOnUse">
<stop stop-color="#00BFFB"/>
<stop offset="1" stop-color="#0270D7"/>
</linearGradient>
</defs>
</svg>
